<svg xmlns="http://www.w3.org/2000/svg" width="728" height="90" viewBox="0 0 728 90"><rect width="100%" height="100%" fill="#EEE"/><path fill="#31343C" d="M214.57 40.9h3.78q1.71 0 2.98-.43t2.09-1.18q.82-.76 1.23-1.79.4-1.04.4-2.27 0-2.48-1.63-3.81t-4.98-1.33h-3.87V40.9Zm11.2 5.04 8.15 12.01h-5.47q-1.55 0-2.25-1.21l-6.84-10.42q-.38-.59-.84-.83-.47-.25-1.37-.25h-2.58v12.71h-6.06V25.42h9.93q3.3 0 5.68.68 2.37.69 3.89 1.93 1.52 1.23 2.24 2.95.72 1.73.72 3.79 0 1.65-.48 3.11-.49 1.46-1.4 2.66-.91 1.19-2.25 2.09-1.34.9-3.05 1.42.59.33 1.08.79.5.47.9 1.1Zm15.19-2.19h10.48q0-1.08-.3-2.03-.3-.96-.91-1.68-.61-.72-1.54-1.14-.94-.41-2.17-.41-2.41 0-3.79 1.37-1.39 1.37-1.77 3.89Zm14.17 3.36h-14.28q.13 1.77.63 3.07.49 1.29 1.3 2.13.81.85 1.93 1.26 1.11.42 2.46.42 1.35 0 2.33-.31.98-.32 1.71-.7.73-.38 1.28-.7.55-.31 1.07-.31.7 0 1.03.51l1.6 2.03q-.92 1.08-2.07 1.81t-2.39 1.17q-1.25.44-2.55.62-1.29.18-2.51.18-2.4 0-4.47-.8t-3.6-2.36q-1.53-1.57-2.41-3.87-.88-2.31-.88-5.35 0-2.36.77-4.44.76-2.08 2.19-3.62t3.49-2.44q2.06-.91 4.64-.91 2.19 0 4.03.7 1.85.7 3.17 2.04 1.33 1.34 2.09 3.28.75 1.95.75 4.45 0 1.26-.27 1.7-.27.44-1.04.44Zm20.82-9.75-1.26 2q-.23.37-.48.51-.24.15-.63.15-.4 0-.86-.23-.46-.22-1.07-.5-.61-.29-1.38-.51-.78-.22-1.84-.22-1.64 0-2.57.69-.94.7-.94 1.82 0 .75.49 1.25.48.51 1.28.89.8.39 1.81.69 1.01.3 2.06.66 1.04.36 2.06.82 1.01.46 1.81 1.17t1.28 1.7q.48.99.48 2.39 0 1.66-.59 3.07-.6 1.41-1.77 2.43-1.17 1.02-2.89 1.6-1.72.57-3.97.57-1.19 0-2.33-.21-1.14-.22-2.18-.6-1.05-.38-1.94-.9-.89-.52-1.56-1.13l1.28-2.11q.25-.38.59-.58.33-.21.85-.21t.98.3q.46.29 1.07.62.61.34 1.43.64.82.29 2.08.29.99 0 1.7-.24.71-.23 1.17-.62.46-.38.67-.89.22-.5.22-1.04 0-.81-.49-1.33-.48-.52-1.28-.9t-1.82-.69q-1.03-.3-2.09-.66-1.07-.36-2.1-.84-1.02-.49-1.82-1.23t-1.28-1.82q-.49-1.08-.49-2.61 0-1.42.57-2.7.56-1.28 1.65-2.24 1.09-.96 2.72-1.53 1.63-.58 3.77-.58 2.39 0 4.34.79 1.96.79 3.27 2.07Zm9.99 4.25v10.36q.94 1.14 2.06 1.61 1.11.48 2.41.48 1.26 0 2.28-.48 1.01-.47 1.72-1.43.71-.97 1.09-2.45.38-1.47.38-3.47 0-2.03-.32-3.43-.33-1.41-.94-2.29-.61-.87-1.47-1.28-.87-.41-1.97-.41-1.73 0-2.95.74-1.21.73-2.29 2.05Zm-.75-5.73.45 2.14q1.42-1.6 3.22-2.59 1.8-.99 4.23-.99 1.89 0 3.46.79 1.56.78 2.7 2.28Q300.38 39 301 41.2q.62 2.19.62 5.03 0 2.59-.7 4.79-.7 2.21-1.99 3.83t-3.13 2.53q-1.83.91-4.1.91-1.94 0-3.31-.6-1.37-.59-2.45-1.65v9.45h-5.56V34.86h3.4q1.08 0 1.41 1.02Zm30.96-1.38q2.57 0 4.67.84 2.11.83 3.6 2.36 1.5 1.53 2.31 3.73.81 2.21.81 4.93 0 2.75-.81 4.95-.81 2.21-2.31 3.76-1.49 1.55-3.6 2.39-2.1.83-4.67.83-2.58 0-4.7-.83-2.11-.84-3.61-2.39-1.5-1.55-2.32-3.76-.82-2.2-.82-4.95 0-2.72.82-4.93.82-2.2 2.32-3.73 1.5-1.53 3.61-2.36 2.12-.84 4.7-.84Zm0 19.51q2.88 0 4.27-1.93 1.38-1.94 1.38-5.67 0-3.74-1.38-5.69-1.39-1.96-4.27-1.96-2.92 0-4.33 1.97-1.4 1.97-1.4 5.68t1.4 5.66q1.41 1.94 4.33 1.94Zm20.46-18.13.38 1.82q.7-.7 1.47-1.29.78-.6 1.65-1.02.86-.41 1.85-.65.99-.24 2.16-.24 1.89 0 3.35.65 1.47.64 2.45 1.8.97 1.16 1.48 2.76.51 1.61.51 3.55v14.69h-5.56V43.26q0-2.12-.97-3.28-.97-1.16-2.95-1.16-1.44 0-2.7.66-1.26.65-2.38 1.77v16.7h-5.56V34.86h3.4q1.08 0 1.42 1.02Zm35.91 1.48-1.26 2q-.23.37-.48.51-.24.15-.63.15-.4 0-.86-.23-.46-.22-1.07-.5-.61-.29-1.38-.51-.78-.22-1.84-.22-1.64 0-2.57.69-.94.7-.94 1.82 0 .75.49 1.25.48.51 1.28.89.8.39 1.81.69 1.01.3 2.06.66 1.04.36 2.06.82 1.01.46 1.81 1.17t1.28 1.7q.48.99.48 2.39 0 1.66-.59 3.07-.6 1.41-1.77 2.43-1.17 1.02-2.89 1.6-1.72.57-3.97.57-1.19 0-2.33-.21-1.14-.22-2.18-.6-1.05-.38-1.94-.9-.89-.52-1.56-1.13l1.28-2.11q.25-.38.59-.58.33-.21.85-.21t.98.3q.46.29 1.07.62.61.34 1.43.64.82.29 2.08.29.99 0 1.7-.24.71-.23 1.17-.62.46-.38.67-.89.22-.5.22-1.04 0-.81-.49-1.33-.48-.52-1.28-.9t-1.82-.69q-1.03-.3-2.09-.66-1.07-.36-2.1-.84-1.02-.49-1.82-1.23t-1.28-1.82q-.49-1.08-.49-2.61 0-1.42.57-2.7.56-1.28 1.65-2.24 1.09-.96 2.72-1.53 1.63-.58 3.77-.58 2.39 0 4.34.79 1.96.79 3.27 2.07Zm4.61-2.5h5.58v23.09h-5.58V34.86Zm6.34-6.72q0 .72-.29 1.35-.29.63-.77 1.1-.49.47-1.14.75-.65.29-1.4.29-.72 0-1.36-.29-.64-.28-1.11-.75-.47-.47-.75-1.1-.29-.63-.29-1.35 0-.74.29-1.4.28-.65.75-1.12.47-.47 1.11-.76.64-.28 1.36-.28.75 0 1.4.28.65.29 1.14.76.48.47.77 1.12.29.66.29 1.4Zm21.33 6.72h4.39l-9.16 23.09h-5.04l-9.15-23.09h4.59q.63 0 1.04.3.42.29.55.74l4.46 12.33q.36 1.08.63 2.12.27 1.03.47 2.06.23-1.03.5-2.06.27-1.04.65-2.12l4.54-12.33q.16-.45.57-.74.4-.3.96-.3Zm11.73 8.89h10.48q0-1.08-.3-2.03-.31-.96-.91-1.68-.61-.72-1.54-1.14-.94-.41-2.18-.41-2.4 0-3.79 1.37-1.38 1.37-1.76 3.89Zm14.17 3.36h-14.29q.14 1.77.63 3.07.5 1.29 1.31 2.13.81.85 1.92 1.26 1.12.42 2.47.42t2.33-.31q.97-.32 1.71-.7.73-.38 1.28-.7.55-.31 1.07-.31.69 0 1.03.51l1.6 2.03q-.92 1.08-2.07 1.81t-2.4 1.17q-1.25.44-2.54.62t-2.51.18q-2.41 0-4.48-.8-2.07-.8-3.6-2.36-1.53-1.57-2.4-3.87-.88-2.31-.88-5.35 0-2.36.76-4.44.77-2.08 2.2-3.62 1.43-1.54 3.49-2.44 2.05-.91 4.64-.91 2.18 0 4.03.7 1.84.7 3.17 2.04 1.33 1.34 2.08 3.28.76 1.95.76 4.45 0 1.26-.27 1.7-.27.44-1.04.44Zm24.12-1.45h10.35l-3.96-10.82q-.29-.72-.61-1.71-.31-.99-.63-2.13-.29 1.14-.6 2.14-.32 1.01-.61 1.75l-3.94 10.77Zm8.26-20.24 12.78 32.53h-4.68q-.79 0-1.28-.39-.5-.4-.75-.98l-2.43-6.64h-13.47l-2.43 6.64q-.18.52-.7.94-.52.43-1.28.43h-4.73l12.8-32.53h6.17Zm29.77 25.69V40.76q-.95-1.15-2.06-1.62-1.12-.47-2.4-.47-1.26 0-2.27.47t-1.73 1.43q-.72.95-1.11 2.43-.38 1.47-.38 3.48 0 2.02.33 3.43.32 1.4.93 2.29.61.89 1.49 1.28.87.4 1.95.4 1.74 0 2.95-.72 1.22-.72 2.3-2.05Zm0-26.6h5.55v33.44h-3.39q-1.11 0-1.4-1.01l-.47-2.23q-1.4 1.6-3.21 2.59-1.81.99-4.22.99-1.89 0-3.46-.79-1.58-.79-2.71-2.28-1.14-1.5-1.76-3.7-.62-2.21-.62-5.04 0-2.57.7-4.78.7-2.2 2-3.82 1.31-1.62 3.13-2.53 1.82-.91 4.1-.91 1.93 0 3.3.61 1.38.6 2.46 1.64V24.51Zm26.39 12.85-1.26 2q-.23.37-.47.51-.25.15-.63.15-.41 0-.87-.23-.46-.22-1.07-.5-.61-.29-1.38-.51-.78-.22-1.84-.22-1.64 0-2.57.69-.94.7-.94 1.82 0 .75.49 1.25.48.51 1.28.89.8.39 1.81.69 1.01.3 2.06.66 1.05.36 2.06.82 1.01.46 1.81 1.17t1.28 1.7q.49.99.49 2.39 0 1.66-.6 3.07t-1.77 2.43q-1.17 1.02-2.89 1.6-1.72.57-3.97.57-1.19 0-2.33-.21-1.13-.22-2.18-.6-1.05-.38-1.93-.9-.89-.52-1.57-1.13l1.28-2.11q.25-.38.59-.58.34-.21.85-.21.52 0 .98.3.46.29 1.07.62.61.34 1.43.64.82.29 2.08.29.99 0 1.7-.24.71-.23 1.17-.62.46-.38.68-.89.21-.5.21-1.04 0-.81-.48-1.33-.49-.52-1.29-.9t-1.82-.69q-1.02-.3-2.09-.66-1.07-.36-2.09-.84-1.03-.49-1.83-1.23t-1.28-1.82q-.48-1.08-.48-2.61 0-1.42.56-2.7.56-1.28 1.65-2.24 1.09-.96 2.73-1.53 1.63-.58 3.76-.58 2.39 0 4.35.79 1.95.79 3.26 2.07Z"/></svg>